<?xml version="1.0" standalone="no"?>
<!DOCTYPE svg PUBLIC "-//W3C//DTD SVG 20010904//EN"
 "http://www.w3.org/TR/2001/REC-SVG-20010904/DTD/svg10.dtd">
<svg version="1.0" xmlns="http://www.w3.org/2000/svg"
 width="288.000000pt" height="387.000000pt" viewBox="0 0 288.000000 387.000000"
 preserveAspectRatio="xMidYMid meet">

<g transform="translate(0.000000,387.000000) scale(0.100000,-0.100000)"
fill="#000000" stroke="none">
<path d="M1830 3690 c-12 -8 -11 -10 8 -10 12 0 22 5 22 10 0 13 -11 13 -30 0z"/>
<path d="M1718 3683 c7 -3 16 -2 19 1 4 3 -2 6 -13 5 -11 0 -14 -3 -6 -6z"/>
<path d="M1895 3680 c3 -5 8 -10 11 -10 2 0 4 5 4 10 0 6 -5 10 -11 10 -5 0
-7 -4 -4 -10z"/>
<path d="M1725 3559 c-4 -6 -5 -12 -2 -15 2 -3 7 2 10 11 7 17 1 20 -8 4z"/>
<path d="M1273 3468 c-22 -24 -57 -61 -78 -83 -54 -59 -109 -175 -145 -310
-30 -112 -32 -127 -26 -225 8 -135 41 -264 87 -345 9 -16 20 -47 24 -69 6 -36
4 -41 -42 -85 -27 -25 -57 -63 -66 -83 -10 -21 -22 -38 -27 -38 -6 0 -10 -7
-10 -15 0 -26 -27 -28 -59 -4 -35 25 -38 41 -16 83 22 42 18 44 -15 6 -34 -41
-37 -57 -11 -84 12 -14 16 -28 12 -40 -7 -18 -9 -16 -22 12 -14 33 -29 42 -29
18 0 -7 15 -29 32 -48 l33 -34 -1 -197 c-1 -143 -4 -200 -14 -212 -8 -10 -9
-15 -2 -15 6 0 9 -7 6 -15 -4 -8 -10 -15 -15 -15 -4 0 -6 7 -3 15 10 26 -14
16 -36 -15 -19 -27 -22 -45 -24 -158 l-2 -127 -44 -63 c-25 -35 -60 -81 -77
-104 -18 -22 -33 -44 -33 -48 0 -5 -6 -15 -13 -22 -7 -7 -35 -47 -63 -88 -28
-41 -68 -100 -89 -130 -45 -63 -149 -216 -210 -307 -23 -35 -45 -60 -49 -56
-3 3 -6 32 -6 63 0 53 4 62 61 144 34 48 64 85 67 82 3 -3 -1 -17 -8 -31 -24
-44 -5 -36 28 13 50 74 131 191 184 266 28 38 47 75 44 83 -3 8 -2 12 3 8 16
-9 52 46 45 68 -4 13 -2 18 7 15 8 -3 26 13 41 34 32 43 34 50 13 42 -8 -4
-15 -1 -15 4 0 6 10 12 22 14 12 2 23 8 25 15 8 24 -68 -11 -107 -48 -32 -31
-39 -45 -39 -76 0 -82 -20 -128 -46 -102 -6 6 -5 13 5 19 13 9 13 10 0 10 -27
0 -87 -58 -95 -92 l-9 -33 -3 33 c-5 41 -21 37 -38 -8 -18 -50 -33 -81 -53
-111 -18 -27 -67 -103 -101 -157 -11 -18 -18 -39 -15 -47 4 -8 2 -15 -3 -15
-13 0 -33 69 -33 114 0 35 -13 49 -23 24 -2 -7 -2 -40 0 -72 3 -38 0 -69 -8
-84 -11 -20 -10 -32 5 -75 11 -30 21 -92 24 -145 4 -79 8 -94 24 -103 51 -27
255 -18 283 13 7 8 6 9 -2 4 -7 -4 -62 -9 -123 -12 -129 -6 -130 -5 -75 86 36
59 42 76 25 65 -19 -12 -10 6 36 73 62 89 75 104 90 98 8 -3 11 0 8 9 -7 18 2
34 86 153 39 55 70 102 70 106 0 10 63 86 72 86 4 0 -5 -20 -19 -45 -33 -60
-24 -57 21 8 20 28 55 75 77 102 22 28 53 76 69 107 16 31 34 59 39 62 4 3 20
29 35 58 14 29 46 75 70 101 25 27 70 85 100 130 30 45 80 118 111 162 100
141 108 154 108 181 0 17 7 29 23 36 14 7 24 20 24 31 0 12 9 30 19 41 11 12
38 56 61 98 l41 77 22 -19 c40 -38 48 -23 16 29 -14 23 -18 42 -14 62 5 24 4
28 -9 23 -17 -7 -22 11 -6 21 16 10 12 25 -7 25 -24 0 -98 -46 -177 -109 -47
-38 -91 -88 -145 -164 -42 -60 -92 -131 -111 -158 -34 -48 -55 -84 -78 -139
-8 -20 -10 -6 -8 63 3 61 8 93 19 105 43 48 167 248 167 268 0 29 -16 31 -25
4 -5 -15 -12 -19 -27 -14 -17 5 -19 3 -14 -18 6 -20 5 -21 -4 -5 -9 14 -7 25
8 50 11 17 18 37 15 44 -2 7 5 18 16 25 12 7 21 19 21 26 0 7 9 22 20 34 29
31 26 85 -10 155 -29 56 -61 151 -80 238 -14 61 -12 212 4 290 16 81 58 196
87 236 10 15 19 31 19 36 0 5 30 39 67 76 36 37 64 70 61 72 -3 3 -23 -14 -45
-37z m-184 -788 c0 -10 -3 -8 -9 5 -12 27 -12 43 0 25 5 -8 9 -22 9 -30z m381
-375 c0 -8 -4 -15 -10 -15 -5 0 -10 7 -10 15 0 8 5 15 10 15 6 0 10 -7 10 -15z
m-390 -15 c0 -5 -5 -10 -11 -10 -5 0 -7 5 -4 10 3 6 8 10 11 10 2 0 4 -4 4
-10z m281 -125 c-17 -25 -31 -50 -31 -55 0 -5 -11 -17 -25 -28 -14 -11 -25
-26 -25 -33 0 -16 -78 -119 -90 -119 -6 0 -10 -6 -10 -12 0 -7 -23 -44 -50
-83 -27 -38 -67 -95 -87 -125 -81 -119 -136 -190 -143 -185 -4 3 -10 -9 -14
-27 -7 -34 -19 -31 -21 5 -2 20 38 92 79 142 40 48 206 286 206 295 0 5 6 13
13 17 6 4 19 22 27 38 20 41 51 74 78 86 17 6 22 14 17 28 -4 14 8 33 46 73
60 61 76 52 30 -17z m-346 35 c3 -5 1 -10 -4 -10 -6 0 -11 5 -11 10 0 6 2 10
4 10 3 0 8 -4 11 -10z m-17 -80 c-7 -11 -15 -15 -17 -9 -2 6 3 15 10 20 20 12
21 11 7 -11z m-8 -54 c0 -7 -7 -21 -16 -32 -15 -19 -16 -19 -8 1 3 11 6 28 6
38 0 9 3 15 9 12 5 -4 9 -12 9 -19z m295 -144 l-28 -27 23 33 c12 18 25 31 28
27 3 -3 -7 -18 -23 -33z m-267 -382 c-7 -10 -14 -17 -17 -15 -4 4 18 35 25 35
2 0 -1 -9 -8 -20z m-162 -137 c-10 -10 -19 5 -10 18 6 11 8 11 12 0 2 -7 1
-15 -2 -18z m-11 -124 c-22 -41 -85 -123 -85 -110 0 10 50 87 83 129 17 22 18
13 2 -19z m-435 -379 c0 -5 -5 -10 -11 -10 -5 0 -7 5 -4 10 3 6 8 10 11 10 2
0 4 -4 4 -10z m10 -154 c0 -3 -4 -8 -10 -11 -5 -3 -10 -1 -10 4 0 6 5 11 10
11 6 0 10 -2 10 -4z m-40 -57 c-7 -11 -14 -18 -17 -15 -3 3 0 12 7 21 18 21
23 19 10 -6z m-29 -47 c-11 -21 -41 -48 -41 -38 0 11 34 55 43 56 4 0 3 -8 -2
-18z m-79 -154 c-7 -7 -12 -8 -12 -2 0 14 12 26 19 19 2 -3 -1 -11 -7 -17z"/>
<path d="M1301 2131 c-10 -6 -10 -10 -1 -16 13 -8 24 -1 19 14 -3 6 -10 7 -18
2z"/>
<path d="M1495 3500 c-3 -5 -2 -10 4 -10 5 0 13 5 16 10 3 6 2 10 -4 10 -5 0
-13 -4 -16 -10z"/>
<path d="M1550 3500 c0 -5 5 -10 10 -10 6 0 10 5 10 10 0 6 -4 10 -10 10 -5 0
-10 -4 -10 -10z"/>
<path d="M1635 3479 c-11 -17 1 -21 15 -4 8 9 8 15 2 15 -6 0 -14 -5 -17 -11z"/>
<path d="M1548 3473 c-10 -2 -18 -8 -18 -13 0 -4 9 -6 20 -3 11 3 20 9 20 14
0 5 -1 8 -2 8 -2 -1 -11 -3 -20 -6z"/>
<path d="M2037 3463 c-3 -5 24 -9 61 -10 83 -1 128 -19 180 -74 64 -66 77
-101 75 -198 -1 -59 2 -80 10 -72 14 14 17 85 6 146 -12 64 -52 124 -114 172
-47 36 -55 38 -131 41 -45 2 -84 0 -87 -5z"/>
<path d="M1350 3445 c-7 -9 -11 -18 -8 -20 3 -3 11 1 18 10 7 9 11 18 8 20 -3
3 -11 -1 -18 -10z"/>
<path d="M1426 3441 c-4 -6 -5 -15 -1 -20 3 -5 1 -12 -5 -16 -15 -9 -12 -25 5
-25 8 0 15 9 15 20 0 13 7 20 20 20 11 0 20 5 20 11 0 6 -6 9 -14 6 -7 -3 -18
-1 -24 5 -6 6 -12 6 -16 -1z"/>
<path d="M1940 3408 c-25 -19 -41 -40 -45 -61 -4 -18 -12 -37 -17 -44 -13 -16
-17 -62 -7 -69 5 -3 9 5 9 18 0 85 128 151 229 119 139 -44 207 -240 115 -337
-27 -29 -29 -34 -11 -28 40 12 105 84 116 130 22 88 9 142 -55 218 -56 68
-105 87 -209 84 -78 -2 -91 -5 -125 -30z"/>
<path d="M1310 3400 c0 -5 4 -10 9 -10 6 0 13 5 16 10 3 6 -1 10 -9 10 -9 0
-16 -4 -16 -10z"/>
<path d="M1386 3403 c-4 -5 -22 -13 -39 -19 -18 -6 -32 -15 -33 -20 0 -5 -4
-17 -8 -26 -10 -22 2 -42 17 -30 7 5 26 13 44 17 29 6 32 9 31 46 0 42 -1 43
-12 32z m-23 -47 c4 -10 0 -12 -15 -8 -15 4 -17 7 -6 13 17 11 15 11 21 -5z"/>
<path d="M1270 3349 c0 -5 5 -7 10 -4 6 3 10 8 10 11 0 2 -4 4 -10 4 -5 0 -10
-5 -10 -11z"/>
<path d="M2510 3356 c0 -2 8 -10 18 -17 15 -13 16 -12 3 4 -13 16 -21 21 -21
13z"/>
<path d="M1320 3280 c-13 -8 -12 -10 3 -10 9 0 17 5 17 10 0 12 -1 12 -20 0z"/>
<path d="M2630 3156 c0 -8 4 -17 9 -20 5 -4 7 3 4 14 -6 23 -13 26 -13 6z"/>
<path d="M1890 3133 c0 -4 5 -15 10 -23 8 -13 10 -13 10 2 0 9 -4 20 -10 23
-5 3 -10 3 -10 -2z"/>
<path d="M1942 3048 c7 -13 14 -24 14 -26 4 -8 64 -19 64 -11 0 5 -6 9 -13 9
-8 0 -24 11 -37 25 -29 31 -44 32 -28 3z"/>
<path d="M2670 3031 c0 -6 4 -13 10 -16 6 -3 7 1 4 9 -7 18 -14 21 -14 7z"/>
<path d="M1111 2904 c0 -11 3 -14 6 -6 3 7 2 16 -1 19 -3 4 -6 -2 -5 -13z"/>
<path d="M1116 2840 c14 -77 45 -203 55 -221 7 -13 17 -18 32 -14 12 3 32 6
44 8 43 6 34 15 -13 14 l-48 -2 -27 85 c-16 47 -28 96 -29 110 0 14 -5 32 -10
40 -7 11 -8 5 -4 -20z"/>
<path d="M1330 2632 c0 -5 11 -14 25 -20 14 -6 25 -10 25 -8 0 2 -11 11 -25
20 -14 9 -25 13 -25 8z"/>
<path d="M2646 2605 c-9 -26 -7 -32 5 -12 6 10 9 21 6 23 -2 3 -7 -2 -11 -11z"/>
<path d="M1490 2526 c0 -2 8 -10 18 -17 15 -13 16 -12 3 4 -13 16 -21 21 -21
13z"/>
<path d="M2605 2510 c-3 -5 -1 -10 4 -10 6 0 11 5 11 10 0 6 -2 10 -4 10 -3 0
-8 -4 -11 -10z"/>
<path d="M2581 2463 c-7 -8 -11 -16 -8 -19 2 -2 10 2 17 11 17 20 9 27 -9 8z"/>
<path d="M1637 2419 c7 -7 15 -10 18 -7 3 3 -2 9 -12 12 -14 6 -15 5 -6 -5z"/>
<path d="M2513 2370 c-61 -67 -72 -94 -15 -34 36 37 79 95 71 93 -2 0 -28 -26
-56 -59z"/>
<path d="M1187 2323 c-12 -11 -8 -23 8 -23 8 0 15 7 15 15 0 16 -12 20 -23 8z"/>
<path d="M1844 2265 c19 -96 29 -125 43 -125 12 0 12 3 -1 22 -9 12 -16 32
-16 43 -1 11 -7 34 -15 50 -8 17 -13 21 -11 10z"/>
<path d="M2354 2254 c7 -18 -19 -54 -38 -54 -6 0 -24 -9 -41 -20 -54 -35 -2
-21 58 16 51 32 55 37 44 55 -14 23 -32 25 -23 3z"/>
<path d="M1956 2141 c-3 -5 1 -12 10 -15 21 -8 56 3 49 15 -8 12 -52 12 -59 0z"/>
<path d="M2038 2143 c7 -3 16 -2 19 1 4 3 -2 6 -13 5 -11 0 -14 -3 -6 -6z"/>
<path d="M2120 2120 c-12 -8 -9 -10 12 -10 15 0 30 5 33 10 8 13 -25 13 -45 0z"/>
<path d="M1570 2107 c0 -8 11 -24 24 -36 30 -28 44 -11 19 24 -20 26 -43 33
-43 12z"/>
<path d="M1746 2109 c-16 -4 -33 -6 -38 -3 -4 3 -8 -1 -8 -9 0 -8 -11 -23 -25
-33 -14 -10 -25 -23 -25 -28 0 -5 10 0 23 12 16 15 36 22 63 22 22 0 45 5 52
12 9 9 12 8 12 -5 0 -9 6 -17 13 -17 7 0 13 9 13 20 0 12 -7 20 -16 20 -9 0
-20 4 -25 9 -6 4 -23 5 -39 0z"/>
<path d="M1885 2091 c6 -10 113 -7 123 4 3 3 -25 5 -62 5 -40 0 -65 -4 -61 -9z"/>
<path d="M1240 1468 c-12 -22 -12 -22 6 -6 10 10 15 20 12 24 -4 3 -12 -5 -18
-18z"/>
<path d="M1205 1420 c-10 -11 -14 -20 -9 -20 5 0 15 9 22 20 7 11 11 20 9 20
-2 0 -12 -9 -22 -20z"/>
<path d="M649 983 c-13 -15 -73 -102 -102 -150 -5 -8 -3 -13 5 -13 7 0 26 25
42 55 15 30 39 66 53 81 13 14 23 30 21 36 -2 5 -11 1 -19 -9z"/>
<path d="M307 743 c-4 -3 -7 -11 -7 -17 0 -6 5 -5 12 2 6 6 9 14 7 17 -3 3 -9
2 -12 -2z"/>
<path d="M266 678 l-18 -33 21 25 c18 22 26 40 18 40 -1 0 -11 -15 -21 -32z"/>
</g>
</svg>
