<?xml version="1.0" encoding="utf-8"?>
<!-- Generator: Adobe Illustrator 26.1.0, SVG Export Plug-In . SVG Version: 6.00 Build 0)  -->
<svg version="1.1" id="Layer_1" xmlns="http://www.w3.org/2000/svg" xmlns:xlink="http://www.w3.org/1999/xlink" x="0px" y="0px"
	 viewBox="0 0 200 200" style="enable-background:new 0 0 200 200;" xml:space="preserve">
<style type="text/css">
	.st0{fill:none;stroke:#000000;stroke-width:0.3;stroke-miterlimit:10;}
	.st1{fill:none;}
	.st2{font-family:'Helvetica-Bold';}
	.st3{font-size:3px;}
</style>
<rect x="107.41" y="168.78" class="st0" width="11.36" height="6.29"/>
<path class="st0" d="M179.27,176.41"/>
<polyline class="st0" points="139.61,116.42 139.61,42.52 179.15,42.52 "/>
<path class="st0" d="M179.03,116.42"/>
<path class="st0" d="M179.15,42.52"/>
<polyline class="st0" points="139.57,116.42 124.97,116.42 124.97,60.34 139.57,60.34 "/>
<path class="st0" d="M134.06,58.71h-3.67c-2.22,0-4.03-1.8-4.03-4.03v-3.67c0-2.22,1.8-4.03,4.03-4.03h3.67
	c2.22,0,4.03,1.8,4.03,4.03v3.67C138.09,56.91,136.28,58.71,134.06,58.71z"/>
<path id="SVGID_x5F_1_x5F_" class="st1" d="M167.08,64.24h-14.81c-2.22,0-4.03-1.8-4.03-4.03V45.4c0-2.22,1.8-4.03,4.03-4.03h14.81
	c2.22,0,4.03,1.8,4.03,4.03v14.81C171.11,62.44,169.31,64.24,167.08,64.24z"/>
<text><textPath  xlink:href="#SVGID_x5F_1_x5F_" startOffset="61.3281%">
<tspan  class="st2 st3">                        2-1.  From the uterus to the blanket fort</tspan></textPath>
</text>
<polyline class="st0" points="20.79,117.79 37.84,117.79 37.84,176.18 "/>
<polyline class="st0" points="20.73,112.32 37.84,112.32 37.84,117.79 "/>
<path class="st0" d="M20.93,87.71"/>
<polyline class="st0" points="20.75,87.71 23.12,87.71 23.12,100.26 20.75,100.26 "/>
<rect x="29.36" y="28.39" class="st0" width="22.58" height="8.9"/>
<rect x="23.01" y="35.45" class="st0" width="2.89" height="41.74"/>
<rect x="43.77" y="42.75" class="st0" width="31.71" height="43.79"/>
<path class="st0" d="M109.05,55.39l-9.42-2.76c-2.72-0.8-4.28-3.65-3.49-6.37l3.15-10.76c0.8-2.72,3.65-4.28,6.37-3.49l9.42,2.76
	c2.72,0.8,4.28,3.65,3.49,6.37l-3.15,10.76C114.62,54.62,111.77,56.18,109.05,55.39z"/>
<rect x="38.29" y="56.43" class="st0" width="2.74" height="15.28"/>
<rect x="78.67" y="56.43" class="st0" width="2.74" height="15.28"/>
<line class="st0" x1="139.52" y1="89.51" x2="125.02" y2="89.51"/>
<path class="st0" d="M64.75,28.38"/>
<path class="st0" d="M106.27,28.38"/>
<path class="st0" d="M134.89,28.38"/>
<path class="st0" d="M147.84,28.38"/>
<path class="st0" d="M106.5,28.38"/>
<circle class="st0" cx="170.59" cy="34.99" r="3.88"/>
<circle class="st0" cx="82.09" cy="34.54" r="3.88"/>
<polyline class="st0" points="150.72,173.05 150.72,145.35 179.12,145.35 "/>
<polyline class="st0" points="124.6,172.93 124.6,159.93 146.91,159.93 146.91,172.93 "/>
<path class="st0" d="M179.07,124.61c0,0-14.02,0-14.02,0c-3.56,0-6.44,2.87-6.44,6.42v0c0,3.54,2.88,6.42,6.44,6.42h14.02"/>
<polyline class="st0" points="120.04,173.19 179.14,173.19 179.14,28.38 175.89,28.38 175.84,28.38 175.84,23.59 147.78,23.59 
	147.78,28.38 134.55,28.38 134.55,23.59 106.5,23.59 106.5,28.38 92.81,28.38 92.81,23.59 64.75,23.59 64.75,28.38 20.73,28.38 
	20.73,176.18 92.65,176.18 92.81,176.18 92.81,162.73 106.04,162.73 106.04,176.18 106.08,176.18 120.04,176.18 119.95,116.42 
	179.13,116.42 "/>
<polyline class="st0" points="20.79,102.88 34.42,102.88 34.42,110.21 34.42,110.21 20.79,110.21 "/>
<path class="st0" d="M139.34,170.7h-7.2c-1.61,0-2.92-1.31-2.92-2.92v-2.59c0-1.61,1.31-2.92,2.92-2.92h7.2
	c1.61,0,2.92,1.31,2.92,2.92v2.59C142.26,169.39,140.95,170.7,139.34,170.7z"/>
<rect x="21.97" y="166.98" class="st0" width="14.73" height="6.81"/>
<circle class="st0" cx="25.52" cy="170.31" r="1.94"/>
<circle class="st0" cx="31.74" cy="170.31" r="1.94"/>
<line class="st0" x1="35.37" y1="167" x2="35.37" y2="173.73"/>
<circle class="st0" cx="49.21" cy="170.62" r="3.5"/>
<path class="st0" d="M31.29,160.07h-3.75c-2.32,0-4.23-1.9-4.23-4.23v-12.73c0-2.32,1.9-4.23,4.23-4.23h3.75
	c2.32,0,4.23,1.9,4.23,4.23v12.73C35.51,158.17,33.61,160.07,31.29,160.07z"/>
<path class="st0" d="M75.47,176.18v-12.04c0,0-10.26,0.2-15.62,12.04"/>
<path class="st0" d="M119.67,146.99h-12.26c0,0,0.84-9.21,12.26-13.99"/>
<rect x="11.6" y="102.02" class="st1" width="6.63" height="81.5"/>
<text transform="matrix(4.489659e-11 -1 1 4.489659e-11 13.7606 183.5215)" class="st2 st3">Protecting my fortress made of blankets </text>
<path id="SVGID_x5F_00000017511166874263435820000006958987950146676923_x5F_" class="st1" d="M53.52,185.3
	c0,0,2.97-32.92,39.29-22.57"/>
<text><textPath  xlink:href="#SVGID_x5F_00000017511166874263435820000006958987950146676923_x5F_" startOffset="14.6484%">
<tspan  class="st2 st3">CHAPTER1. Rice versus Wheat</tspan></textPath>
</text>
<path id="SVGID_x5F_00000083065213867039265800000007532071289356891297_x5F_" class="st1" d="M32.09,52.86v40.04h76.86"/>
<text><textPath  xlink:href="#SVGID_x5F_00000083065213867039265800000007532071289356891297_x5F_" startOffset="9.2773%">
<tspan  class="st2 st3">1-1. Why does Korea like to use the word ‘we’ more than ‘I’? </tspan></textPath>
</text>
<path id="SVGID_x5F_00000134229724311252813430000015411128286645545899_x5F_" class="st1" d="M49.3,19.63h38.38v48.14"/>
<text><textPath  xlink:href="#SVGID_x5F_00000134229724311252813430000015411128286645545899_x5F_" startOffset="1.1719%">
<tspan  class="st2 st3">     1-2. Renting a personal space for an hour</tspan></textPath>
</text>
<path id="SVGID_x5F_00000059300320709009784900000006169736964703540370_x5F_" class="st1" d="M105.55,26.86
	c9.1-0.34,16.76,6.76,17.11,15.87c0.34,9.1-6.76,16.76-15.87,17.11c-9.1,0.34-16.76-6.76-17.11-15.87S96.44,27.2,105.55,26.86z"/>
<text><textPath  xlink:href="#SVGID_x5F_00000059300320709009784900000006169736964703540370_x5F_" startOffset="106.9046%">
<tspan  class="st2 st3">	1-3. Bubble in a bubble</tspan></textPath>
</text>
<path id="SVGID_x5F_00000047051562867571153900000011603546414532268459_x5F_" class="st1" d="M157.23,11.67h26.72v57.36"/>
<text><textPath  xlink:href="#SVGID_x5F_00000047051562867571153900000011603546414532268459_x5F_" startOffset="1.4648%">
<tspan  class="st2 st3">               Chapter 2. lilliputian drifting in a Gulliver’s world</tspan></textPath>
</text>
<path id="SVGID_x5F_00000049209623503158426190000017386602215835975350_x5F_" class="st1" d="M145,77.19v51.69"/>
<text><textPath  xlink:href="#SVGID_x5F_00000049209623503158426190000017386602215835975350_x5F_" startOffset="14.1602%">
<tspan  class="st2 st3">Chapter 3. A universe in a room</tspan></textPath>
</text>
<path id="SVGID_x5F_00000132061747849658191080000014442985987360059789_x5F_" class="st1" d="M158.6,110.97h23.99v44.05H158.6"/>
<text><textPath  xlink:href="#SVGID_x5F_00000132061747849658191080000014442985987360059789_x5F_" startOffset="5.8594%">
<tspan  class="st2 st3">3-1.  A spectacular Metaverse revival</tspan></textPath>
</text>
</svg>
